<?xml version="1.0" encoding="UTF-8"?>
<svg enable-background="new 0 0 1338.6 946.6" version="1.1" viewBox="0 0 1338.6 946.6" xml:space="preserve" xmlns="http://www.w3.org/2000/svg">
<style type="text/css">
	.st0{fill:#CEAE9D;}
	.st1{fill:#FFFFFF;}
	.st2{fill:#B2948A;}
	.st3{fill:#EA5514;}
	.st4{fill:#40220F;}
	.st5{fill:#7A6A56;}
	.st6{fill:#E8D9CD;}
	.st7{fill:#EFB892;}
	.st8{fill:#77675E;}
	.st9{fill:#507589;}
	.st10{fill:#604C3F;}
</style>
	<path class="st0" d="m1338.6 946.6v-275.9l-14.9-0.2s-58 4-94 0-122 0.2-192-9.8-288 1.8-338 0.1-242 5.8-312.7-8.9-331.3 10.7-371.3 8.8l-15.7-4.5v290.4h1338.6z"/>
<path class="st1" d="m267.7 729.5c-1.3 6.7-65.2 175.3-67.2 180 12.6 3.3 120.6 6.7 137.9 6.7s188 5.3 208.7 4.7 98-3.9 109.3-5.6c4.7-10 7.3-71 2.7-87.7s-22.7-69.3-29.3-72.7c-15.3-3.3-92-4.7-110.7-5.7s-54.5 0.5-62.5 0c-14.1-2.1-179.1-22.5-188.9-19.7z"/>
<ellipse class="st2" cx="803.4" cy="756.2" rx="61.6" ry="9.5"/>
<path class="st3" d="m819.7 612.1c30.7 2 64.7 10 64.7 25.4 1.3 12.7 0.7 22 0 34.7 2-5.3 6.5-8.7 11.8-13.6s18.2-5.7 22.9 15.6-8.8 47.3-20.4 52.4-23.7-4.4-26.1-15.7c-5.6 17.5-9.9 18-32.9 43.8-28.6 1.3-73-7.7-96.9-20.4-10.9-39.7-14.5-93.3-5.1-104.8 11.3-13.8 51.3-19.4 82-17.4zm65.8 79.7c-3 7.4-3 21.4 4.8 22.6s13.2-13.2 16.8-22.6 2-16.4-4.3-20.5-14.3 13.1-17.3 20.5z"/>
<path class="st4" d="m761.3 640.9c-13-7.7 32.7-12.9 49.7-11.3s51.5 2.5 59 11.3c-19.5 4-43.4 7.4-59.5 6.1s-40.3-0.9-49.2-6.1z"/>
	<path class="st5" d="m177 703.5c-8.6 11.1-34.3 46.6-52.3 63.5 12.9 2 23.8 10.7 28.5 22.9 1.4-0.7 2.6-1.5 3.8-2.4 3.3-3.3 40-58 43.3-78.7 1.4-8.3-14-17.3-23.3-5.3z"/>
	<path class="st6" d="m124.7 767c-1.5 1.4-2.9 2.7-4.3 3.8-5.8 4.8-7 22-9 30.7s6 6.7 9.3 4c2.8-2.2 23.5-10.8 32.5-15.6-4.8-12.2-15.6-20.9-28.5-22.9z"/>
<path class="st1" d="m603.7 309c14.9 7.2 62.7 55.3 71.5 82.7s8.7 162.1 2.9 197.9-10 102-28.9 118.3-86.3 36.9-125.3 28.2-77.5-21.6-102.1-44.5c-25.3 12.6-108.4 17.9-135.8 15.8s-39-28.5-46.3-41.1-27.4-153.6-30.7-193.1-4.1-76.3 8.5-98.4 71-69.9 86.3-80c17.1-11.4 118.9-35.5 173.7-28.4s116.8 38.1 126.2 42.6z"/>
	<path class="st7" d="m375.8 575.6c0-7.1-34.2-53.7-47.7-60-20.8-9.7-46 2.1-60.5 24.2s-36.6 43.2-22.9 61 16.8 27.2 36.8 16.2 51.8-20.8 62.1-33.1c17.4 1.2 27.7-4.5 32.2-8.3z"/>
	<path class="st7" d="m545 582.3c-17.5-27.4-45.1-18.3-59-14.7 0.3 12.2 13.6 68.2 15 72.2 21.3-13.5 27.3-9.1 44-8.5 5.3-22.2 8-36.4 0-49z"/>
	<path class="st7" d="m577.3 270.6c17.7-27.4 3.7-112.5 0-131.8s-61.7-76.7-87.3-98.7-103 10-129 28-23.3 27.3-32 48.4-17 71.4-5.3 99.6c5.7 13.7 11.3 37.3 17.8 50.3-12.9-1.1-31.1 11.7-28.9 28.4s18.4 24 34.8 29.4c3.8 12.4-0.7 22.4 14.2 30.9s52.2 19.2 63.9 25.6 30.9 7.5 46.9 0 45.8-19 57.5-25.6 23.3-10.9 26.3-22.3c13.4-4 39-17.6 40.6-28.5s2.9-37.9-19.5-33.7z"/>
<path class="st8" d="m456.5 164c2.5 17.1 17.3 58.1 23 67.7 9.5 15.8 29.5 49.5 57.9 47.3-12.6-16.8-21.8-61.1-25.1-77.9 23 37.9 74.6 73.9 108.2 78-26.3-20.1-27.4-25.3-29.5-41.1 9.5-14.7 17.9-74.5 10.5-96.2s-24.1-61.7-52.5-78.6-56.8-45.2-103.1-40-92.6 29.5-105.3 61-24.2 68.4-21 96.8l3.2 28.4c-2.1 15.9-11.8 35.1-14.5 43.2 20.8-16.9 44.8-68.4 44.8-90.5 19.1-1.4 48.7-7.4 58.1 4.7 15.4-5 26.7-3.7 45.3-2.8z"/>
<path class="st9" d="m423.8 408.5s9.3 14.9 14.2 21.6c-4.3 16.5-26.5 144.4-25 155.2 18.7-1.3 66.5-14.7 66.5-14.7-8.5-27-2.5-55.3-2.3-63.4s-8.6-60.9-12.4-71.3c9.6-12.6 21.4-33.6 27-44.7-12.2-14.2-20.8-5.1-33.9-5.3-13.1 11.3-34.1 22.6-34.1 22.6z"/>
	<path class="st10" d="m753.5 622.2c-5.6 1.4-12 7.3-7.4 13.2 2.5 3.3 7.1 4.4 11 5.4 6 1.5 12 2.6 18.1 3.4 21.9 3.3 44.1 4 66.1 2.2 9.3-0.8 18.7-1.8 27.9-3 5.3-0.7 14-2 13.8-9.2-0.2-7.6-12.1-10.4-17.7-12.4-10.6-3.7-21.4-6.5-32.5-8.5-13.7-2.4-27.8-2.5-41.5-0.1-12.8 2.2-25.1 6.3-37.8 9-1.7 0.3-1.4 1.6 0.4 1.3 21.4-4.5 42-12.1 64.3-10.3 18.1 1.6 35.8 5.9 52.5 12.9 3.2 1.3 7.1 2.8 8.8 6.1 2.8 5.4-2.7 8.8-7.4 9.5-6.6 1-13.3 1.7-20 2.3-17.6 1.8-35 2.9-52.7 1.3-11.9-0.9-23.8-2.5-35.6-4.8-4.7-1-10.9-1.8-14.4-5.4-4.3-4.4-0.9-10.3 4.4-11.6 1.8-0.5 1.4-1.8-0.3-1.3z"/>
	<path class="st10" d="m729.6 629.8c-3.4 25.5-0.4 51.6 4.7 76.7 4.2 20.3 9.7 40.8 18.2 59.8 0.4 1 3.3 0.1 2.9-0.8-8.4-18.5-13.8-38.5-17.9-58.3-5.3-25.4-8.5-51.9-5-77.8 0.1-1.1-2.8-0.6-2.9 0.4z"/>
	<path class="st10" d="m846.3 744.2c10.2-4.9 17.8-13.9 23.2-23.7 12.8-23.4 15.6-51.7 16.3-77.8 0-1.4-2.9-0.8-2.9 0.3-0.7 25.5-3.4 52.8-15.3 75.8-5.1 9.8-12.3 19.1-22.5 24-1.8 0.9-0.2 2.1 1.2 1.4z"/>
	<path class="st10" d="m885.5 672.4c3.1-3.6 5.3-8 8.8-11.2 5.6-5.3 12.8-3.6 17.3 2 7.5 9.2 7.2 22.4 2.8 32.8-3.9 9.3-8.6 21.3-17 27.5-5.1 3.7-13 1.4-15.8-4.3-1.9-3.8-1.3-8.8-1.8-12.8-0.1-1.1-3-0.4-2.9 0.8 0.5 4.4-0.1 9.6 2.2 13.6 2 3.6 6.8 6.1 10.8 6.6 8.6 1.1 14.8-7.7 18.7-14 5.6-9.1 11.9-20.7 11.9-31.7 0-9.2-3.5-21.2-13-24.8-12.1-4.6-17.9 7.3-24.4 14.9-1.1 1.3 1.7 1.5 2.4 0.6z"/>
	<path class="st10" d="m758 744c3.6 3.5 10 4.6 14.7 5.6 9 1.9 18 3.2 27.2 4 17.2 1.7 35.6 3.5 52.8 0.9 1.4-0.2 2.4-1.9 0.4-1.6-16.3 2.5-33.7 0.8-50.1-0.8-9-0.8-17.9-2.1-26.7-3.8-4.9-1-11.9-1.9-15.6-5.6-0.7-0.6-3.4 0.5-2.7 1.3z"/>
	<path class="st10" d="m236.8 646.3c-8.3 1.2-16.8 1.1-25.1 1.2-14.2 0.3-28.4 0.4-42.6 0.4-30.5 0-61-0.2-91.4-0.8-9.7-0.2-19.5-0.2-29.2-0.9-0.8 0-3.4 1.3-1.8 1.4 22.1 1.5 44.4 1.2 66.6 1.4 31.2 0.3 62.4 0.5 93.6-0.1 9.8-0.2 19.9 0 29.6-1.4 1.2 0 2.3-1.5 0.3-1.2z"/>
	<path class="st10" d="m924.2 659c42.6-0.3 85-1.9 127.6-2.5 45-0.6 90.1-0.6 135.2 0.4 9.5 0.2 18.9 0.5 28.4 0.9 5.3 0.3 10.8 0.4 16 1.4 0.9 0.2 3.4-1.2 1.8-1.5-11.7-2.3-24.4-1.9-36.3-2.2-21.8-0.6-43.6-0.8-65.4-0.9-39.7-0.2-79.6-0.5-119.3 1.2-28.9 1.2-57.8 1.3-86.7 1.5-1.2 0.1-3.2 1.7-1.3 1.7z"/>
	<path class="st10" d="m679.5 657.8c13.8 1.2 27.8 0.9 41.6 1.1 1.2 0 3-1.7 1.1-1.8-13.8-0.2-27.8 0.1-41.6-1.1-1.2-0.1-3.1 1.6-1.1 1.8z"/>
	<path class="st10" d="m178.3 697.4c5.2-6.1 14.3-6.7 19.1 0.2 2.4 3.5 1.3 7.3 0.1 11-2.8 8.8-7.2 17.2-11.7 25.3-8.5 15.5-17.8 31-28.3 45.3-3.4 4.6-9.4 6.6-14.5 8.9-7.4 3.4-15.4 6.3-22.4 10.6-1.6 1-3.6 2.8-5.6 2.3-3.7-0.8-2.2-5.3-1.7-7.8 1.1-5.6 1.8-11.2 3.1-16.7s3.1-9.7 7.4-13.5c3.4-3 6.6-6.3 9.8-9.6 16.2-17.5 30.1-37.1 44.7-56 0.7-0.9-2.1-0.5-2.6 0.1-15.2 19.5-29.5 39.9-46.6 57.8-3.7 3.8-8.7 7.2-11.8 11.5-3.4 4.8-4.3 11.6-5.3 17.3-0.5 3-1 6.1-1.6 9.1-0.4 2.2-1.6 5.2-0.4 7.3 1.6 2.8 5.5 2 8 1.1 2.9-1.1 5.5-3.1 8.4-4.5 4.9-2.4 9.9-4.5 14.8-6.8 5.8-2.7 14-5 18.2-10.2 5.1-6.3 9.4-13.5 13.7-20.4 6.5-10.2 12.7-20.6 18.3-31.4 2.9-5.3 5.4-10.9 7.6-16.5 1.4-3.7 3.7-8.8 2.4-12.8-3.8-11.8-19.6-9-25.8-1.6-0.6 0.9 2.2 0.6 2.7 0z"/>
	<path class="st10" d="m258.9 736.3c-1.3 6.4-3.5 12.7-5.3 18.9-3.7 12.9-7.5 25.9-11.3 38.8-8.5 29-17.2 58-25.9 87-2.2 7.3-3.9 15-6.8 22-0.4 0.9 2.5 0.6 2.9-0.4 2.4-5.8 3.8-12 5.6-18 3.9-12.8 7.7-25.5 11.5-38.3 8.7-29.1 17.2-58.2 25.7-87.3 2.2-7.6 4.9-15.3 6.5-23 0.2-1.2-2.7-0.7-2.9 0.3z"/>
	<path class="st10" d="m199.6 910.5c11.1 2.8 23.6 2.5 35 3.1 19.2 1.1 38.4 1.8 57.6 2.5 22.6 0.8 45.3 1 68 1.6 35.1 0.9 70.2 1.9 105.3 2.8 26.9 0.7 54.1 2.1 81 1.5 34.5-0.8 69.2-2.2 103.7-5 2-0.2 4-0.3 6-0.6 1.6-0.2 2.2-2.5 0.2-2.2-14.3 2-29.1 2.1-43.5 2.8-19.1 1-38.3 1.8-57.5 2.5-24.8 0.9-49.6-0.2-74.4-0.8-36.2-0.9-72.4-1.9-108.5-2.8-21.3-0.5-42.6-0.8-63.9-1.4-19.3-0.6-38.7-1.3-58-2.2-14.9-0.7-29.9-1.2-44.6-3-1.6-0.2-3.3-0.4-4.9-0.8-1.1-0.4-3.2 1.5-1.5 2z"/>
	<path class="st10" d="m677.7 902.9c2.9-6.9-0.3-16.7-1.9-23.5-2.8-12-6.5-23.7-10.2-35.5-6.3-20.2-11.6-40.7-18.5-60.7-1.8-5.5-4-11-6.4-16.3-1.2-2.6-2.6-6.1-5.2-7.6-1-0.5-3.6 0.8-2.3 1.5 2.5 1.4 3.8 5.2 5 7.6 2.1 4.5 3.8 9.2 5.5 13.9 3.8 10.8 7.1 21.7 10.3 32.7 5.6 19.2 11.9 38.3 17.1 57.7 1.6 5.8 2.9 11.7 3.9 17.7 0.6 3.8 1.5 8.5 0 12.2-0.6 1.5 2.3 1.3 2.7 0.3z"/>
	<path class="st10" d="m614.8 753.8c-8-1.7-16.4-2-24.5-2.5-11.7-0.8-23.4-1.2-35.1-1.7-20.8-0.8-41.5-1.9-62.3-1.7-11.9 0.1-24 1-35.9 0.3-1.4-0.1-3 2-1 2.1 21.4 1.2 43-0.9 64.5 0.1s42.8 1.5 64.2 2.7c9.7 0.6 19.6 0.8 29.2 2.8 1.4 0.3 2.9-1.7 0.9-2.1z"/>
	<path class="st10" d="m446.9 748.5c-51.7-7.4-103.7-14.1-155.8-18.7-7.2-0.6-16.4-2.7-23.6-0.8-1.7 0.4-1.5 1.4 0.3 1s5-0.1 7.2 0c4.5 0.2 9.1 0.6 13.6 1 13.5 1.2 27 2.7 40.5 4.2 30 3.4 59.9 7.2 89.7 11.1 8.7 1.1 17.5 2.3 26.2 3.5 0.7 0.1 3.4-1 1.9-1.3z"/>
	<path class="st10" d="m352.5 780.4c21.4-0.1 42.6-3.6 64.1-3.2 18.7 0.3 37.3 0.8 55.9 1.5 1.2 0 3-1.7 1.1-1.8-18.7-0.7-37.3-1.2-55.9-1.5-21.5-0.4-42.7 3.1-64.1 3.2-1.2 0-3.1 1.8-1.1 1.8z"/>
	<path class="st10" d="m313.8 819.9c10.5-2.8 21.6-4 32.4-5.5 14.4-2 28.8-3.8 43.2-5.4 25.3-2.7 50.7-4 76.2-3.8 11.6 0 24.1-0.7 35.6 1.5 0.7 0.1 3.1-0.9 2.4-1.1-9.7-1.8-20.1-1.4-29.9-1.5-14.9-0.2-29.8 0-44.7 0.6-26.4 1.1-52.9 4.7-79 8.2-12.1 1.7-24.5 3-36.3 6.1-1.8 0.5-1.6 1.3 0.1 0.9z"/>
	<path class="st10" d="m299.5 875.8c13.7-0.6 27.6 1.6 41.2 2.6 13.1 0.8 26.2 0.8 39.3-0.2 29.4-1.7 58.5-2.8 88-2.2 14.3 0.3 29.4 0.1 43.5 3.1 1.2 0.2 3.4-1.5 1.7-1.9-11.8-2.5-24.2-2.7-36.2-3-13.7-0.4-27.4-0.5-41.1-0.5-29.9 0.1-59.9 4.8-89.7 3-15.4-1-30.9-3.5-46.4-2.9-1.6 0.1-2.2 2.1-0.3 2z"/>
	<path class="st10" d="m540.3 799.3c7.6 6.5 11.5 18.7 14.6 27.8 0.3 0.9 3.2 0 2.9-0.8-3.2-9.3-7-21.6-14.8-28.2-0.7-0.4-3.3 0.7-2.7 1.2z"/>
	<path class="st10" d="m565.1 827.5c13 0.6 26.8-2.7 39.7 0 0.5 0.1 2.5-0.2 2.4-1.1-1.9-9.9-4.4-19.9-5.2-30-0.2-1.8 0.4-3.9-0.8-5.3s-4.2-1.6-5.8-2c-7.5-1.5-15.4-1.8-23.1-2s-15.4-0.3-22.9 0.9c-1.3 0.2-2.5 1.7-0.5 1.4 14.6-2 29.4-1.7 43.9 1 1.4 0.3 4.9 0.6 5.9 2s0.4 5.1 0.6 6.8c1.2 9.4 3.3 18.7 5 27.9l2.4-1.1c-13.1-2.7-27 0.6-40.3 0-1.2 0.1-3.3 1.4-1.3 1.5z"/>
	<path class="st10" d="m554.9 847.9c1.9 12 4.4 23.9 5.3 36 0 0.1 0.2 0.2 0.3 0.3 15.8 5 32.2 4.2 48.6 3.5 0.6 0 1.8-0.2 2-1 3.1-12.9 4.7-26.2 4.7-39.5-0.1-0.2-0.3-0.4-0.6-0.4-19.3-2.5-39.5-3.3-58.7 0-1.3 0.2-2.4 1.9-0.4 1.6 15.3-2.7 31.2-2.4 46.5-1.2 2.2 0.2 5.2 0 7.4 0.7 2.5 0.8 2.5 1.1 2.8 3.6 0.3 3.1-0.3 6.6-0.5 9.7-0.7 8.7-2 17.4-4.1 25.9l2-1c-13.4 0.7-26.9 1.5-40.1-1.3-1.4-0.2-2.9-0.5-4.2-1-3.4-1.5-2.9-2.4-3.2-5.1-0.4-3.3-0.8-6.6-1.3-9.9-1.1-7.2-2.4-14.4-3.6-21.6-0.2-1.1-3.1-0.4-2.9 0.7z"/>
	<path class="st10" d="m315 243.1c5.6-5.9 9.6-13.3 13.3-20.5 5-9.6 9.4-19.4 13.5-29.4 3.5-8.4 6.9-16.9 10.2-25.4 3.9-9.9 8.9-17.6 18.4-23.1 13.8-7.9 30.3-6.7 41.2 5.2 0.5 0.5 2.5-0.3 2.8-0.8 10.5-17.3 30.7-26.9 50.1-29.8 1.1-0.2 2.6-1.3 0.5-1-20.5 3-42.4 13-53.5 31.3l2.8-0.8c-15.9-17.4-44-11.4-58 5.5-5.8 6.9-8.2 16.7-11.5 25-4.4 11.1-9 22.1-14.1 33-5 10.6-10.2 22.2-18.3 30.8-0.6 0.9 2.1 0.6 2.6 0z"/>
	<path class="st10" d="m354.1 140.2c8-6.3 20.6-6.3 30.2-4.8 10.4 1.6 21.1 5.8 27.3 14.7 0.5 0.7 3.3-0.3 2.7-1.1-7.3-10.4-20.7-14.6-32.9-15.5-9.8-0.7-21.6 0.2-29.6 6.4-1.2 1 1.7 0.8 2.3 0.3z"/>
	<path class="st10" d="m396.2 160.2c-13.2-4.4-25.6-7.1-39.7-5-1.6 0.2-2.2 2.4-0.3 2.1 13.5-2 25.5 0.6 38.3 4.9 1.2 0.3 3.4-1.4 1.7-2z"/>
	<path class="st10" d="m444.4 129.9c3.4 7.9 5.4 16.5 7.8 24.7 4 13.4 7.9 26.8 12 40.1 3.5 11.2 6.9 22.7 11.9 33.4 4.8 10.4 12 20.6 19.4 29.3 10.5 12.5 24.3 23.2 41.4 22.3 0.4 0 2.5-0.5 2-1.2-8.3-11.4-12.4-26.1-16.1-39.5-3.5-12.6-6.3-25.4-8.9-38.3l-2.9 0.8c12.8 20.8 31 38.2 50.8 52.2 17.1 12.1 36.9 23.3 58 26 0.3 0 3.1-0.6 2.3-1.2-8.5-6.5-18.4-13.4-24.2-22.7-1.5-2.4-2.6-4.9-3.3-7.6-0.8-2.9-2.4-7.8-1.7-10.8 0.5-2.2 2.3-4.6 3.2-6.9 1.5-4 2.7-8.2 3.6-12.4 2.3-9.6 3.9-19.4 4.9-29.2 1.9-17.1 3-35.3-2.9-51.8-6.9-19.3-16-38.4-28.9-54.5-6.8-8.5-15.1-15.7-24.4-21.3-8.7-5.3-17-11.3-25.5-16.8-18.6-12-38.8-21.7-61.4-22.6-24-0.9-49.3 6.1-70.9 16.1-18.8 8.7-37.7 21.4-48.1 39.8-7.1 12.7-11.4 27.8-15.6 41.7-4.4 14.6-8 29.7-8.9 45.1-0.9 15.1 1.8 30.3 3.5 45.3 0.1 0.8 3 0.2 2.9-0.8-1.2-11.1-3-22.4-3.6-33.6-1.3-26.7 7.3-53.7 16.4-78.4 4-10.8 7.9-21 15.4-29.9s17-16.1 27.1-21.9c22.3-13 49.7-21.7 75.7-22 23.4-0.3 44.5 9.2 63.8 21.7 8.2 5.3 16.2 11 24.5 16.2 8.9 5.6 16.9 11.4 23.8 19.4 13.6 15.6 23 34.7 30.2 53.9 6.1 16.2 6.2 32.6 4.7 49.8-0.9 10.8-2.6 21.6-4.9 32.1-1 4.4-2.2 8.7-3.6 12.9-0.5 1.6-1.1 3.1-1.8 4.7-0.5 1.2-1.9 2.9-2.2 4.2-0.5 2.8 1 7.4 1.7 10.1 0.8 3.2 2.2 6.3 4 9.1 5.9 9.1 15.5 15.9 23.9 22.3l2.3-1.2c-21.2-2.8-41.2-14.3-58.3-26.6-19.2-13.9-37-30.9-49.5-51.1-0.4-0.7-3.1-0.1-2.9 0.8 2.6 13.3 5.6 26.6 9.2 39.6s7.8 27.3 15.9 38.4l2-1.2c-16.5 0.9-29.9-10-39.9-21.9-7.4-8.8-14.5-18.9-19.3-29.3-10.2-22.2-16-46.8-22.9-70.2-2.7-9.2-4.9-18.9-8.6-27.7-0.6-1-3.4-0.1-3.1 0.6z"/>
	<path class="st10" d="m424.6 155.7c8.4-5.5 17.2-6.1 27-5.4 1 0.1 3.1-1.4 1.1-1.6-10.8-0.8-20.7 0-30 6.1-1.5 1.2 1 1.4 1.9 0.9z"/>
	<path class="st10" d="m433.5 162.1c4.9-0.9 12.6-0.4 18.2 0.1 1.4 0.1 3-2 1-2.1-6.4-0.5-13.4-1.1-19.8 0.1-1.8 0.3-1.2 2.3 0.6 1.9z"/>
	<path class="st10" d="m327.6 236.3c3.3 11.6 9.1 22.6 13.9 33.7 4.4 10.2 9.4 20.6 10.8 31.7 1.6 12.6 2.1 25.7 6.8 37.6 1.9 4.8 4.6 9.6 8.9 12.5 4.8 3.2 10.7 5.3 16 7.4 13.6 5.4 27.6 9.7 41.1 15.2 5.6 2.3 10.7 5.4 16.6 6.8 7.4 1.8 15.1 2.1 22.6 0.9 15-2.2 29.2-10.8 42.9-17 7.1-3.2 14.2-6.3 21.3-9.4 4.8-2.1 10.1-3.8 14.3-7 11.5-8.8 16.9-24.3 21.5-37.5 2.3-6.6 4.4-13.4 7-19.9 2.7-6.9 5.7-13.7 7.5-20.9 0.2-0.8-2.7-0.4-2.9 0.5-2.8 11.6-8.2 22.5-12.1 33.8-4.2 12.3-8.3 25.4-16 36s-20.8 14.3-32.5 19.4c-13.3 5.9-26.5 12.9-40.2 18-9.8 3.6-20.3 4.3-30.5 2-5.8-1.4-10.9-4.3-16.4-6.6-12.4-5.2-25.2-9.2-37.7-13.9-11.2-4.3-22.9-7.8-28-19.6-4.9-11.2-5.7-23.9-7-35.9-2.7-24.6-18.4-45.2-25-68.6-0.2-0.8-3.1 0-2.9 0.8z"/>
	<path class="st10" d="m333.7 265.7c-13.8 4.8-25.6 16-21.8 31.8 3.4 14.3 16.9 24.4 31 26.5 1 0.1 3.4-1.4 1.8-1.6-13.1-2-25.4-11-29.4-23.9-4.8-15.3 5.9-26.6 19.6-31.5 1.8-0.6 0.1-1.7-1.2-1.3z"/>
	<path class="st10" d="m592.8 279.5c3.1 7.6 3.3 16.1 0.5 23.8-4.8 12.8-17 20.5-29.2 25.4-1.8 0.7-0.2 2.4 1.3 1.8 12.5-5 25-13 30.3-25.9 3.4-8.3 3.4-17.5 0-25.8-0.5-1.4-3.4-0.6-2.9 0.7z"/>
	<path class="st10" d="m368.6 352c2.3 13.4 7.5 26.5 13.5 38.6 5.5 11 12.2 23.2 22.7 30.1 0.7 0.3 1.5 0.2 2.1-0.2 16.1-10.5 31.4-22.4 46.5-34.4 1.3-1-1.6-1.2-2.3-0.5-14.9 11.8-30 23.6-46 34l2.1-0.2c-10.9-7.2-17.9-20.5-23.4-32s-10.1-23.6-12.3-36.1c-0.2-1.1-3.1-0.4-2.9 0.7z"/>
	<path class="st10" d="m478.2 377.4c12.3 13.3 22.6 28.1 32.7 43 0.5 0.7 2.5-0.1 2.9-0.6 8.1-12.3 16.8-24.2 24.2-37 6.3-10.9 12.3-23 12.5-35.8 0-0.5-2.9-0.1-2.9 0.8-0.2 13.2-6.7 25.7-13.3 36.9-7.2 12.3-15.6 23.8-23.4 35.6l2.9-0.6c-10.2-15.1-20.5-29.9-32.9-43.3-0.5-0.6-3.2 0.5-2.7 1z"/>
	<path class="st10" d="m426.9 408.9c2.3 5.7 3.4 12.2 6.5 17.5 1.2 2 2.7 3.9 4.5 5.4 1.6 1.4 2.9 1.7 2.7 3.8-0.2 0.9-0.6 1.8-1 2.6-4.3 11.5-7.9 23.2-11 35-8.5 31.8-13.8 64.8-12.7 97.7 0 0.5 2.9 0 2.9-0.8-1.6-46.1 8.5-93.8 25.3-136.7 0-0.1 0-0.2-0.1-0.2-9.4-6-10.4-15.6-14.3-25.2-0.1-0.6-3 0.3-2.8 0.9z"/>
	<path class="st10" d="m488.7 395.8c-7.3 13.5-14.4 26.5-24 38.5-2.1 2.6-0.6 3.9 0.3 7.1s1.9 6.6 2.8 9.9c1.9 7.2 3.6 14.5 5 21.9 2.5 12.6 3.4 25.4 2.8 38.2-0.7 13-2.5 26.9 0.4 39.7 0.2 1 3.1 0.3 2.9-0.8-3-13.1-1-27.4-0.3-40.7 0.6-11.7-0.3-23.4-2.4-34.9-1.3-7.1-2.8-14.1-4.6-21.1-0.9-3.4-1.8-6.8-2.8-10.1-1.2-4.1-2.8-6.6-0.1-10.4 4.5-6.5 9.3-12.7 13.3-19.6 3.3-5.7 6.3-11.6 9.5-17.5 0.6-1.3-2.3-1.1-2.8-0.2z"/>
	<path class="st10" d="m305.3 294.2c-7.6 3.4-14.4 8.9-20.9 14-10.2 8-20.1 16.6-29.6 25.6-16.2 15.2-35.4 32.1-42.2 54.1-4.8 15.6-5.4 32.3-5.1 48.5 0.2 15 1.2 30 2.7 44.8 2.1 21.1 5 42.2 7.9 63.2 3.4 24.8 7.1 49.6 11.4 74.3 1.7 9.7 3.4 19.4 5.4 29.1 1.2 5.7 2.2 11.8 4.4 17.2 3.2 7.8 8.4 15.7 13.3 22.4 7.5 10.1 17.6 18.1 30.2 20.3 9.9 1.8 20.6 1.1 30.6 0.8 12.8-0.3 25.6-1.1 38.4-2.3 13.6-1.2 27.1-2.8 40.5-5.2 9.9-1.8 20-3.8 29.3-7.7 12-5.1 23.3-12.2 34.6-18.7 12.1-7 24-14.1 36-21.1 3.5-2 7-4.1 10.5-5.9 0.3-0.2 1-0.5 0.9-1-8.4-25.1-16.7-50.5-22.7-76.4-0.1-0.5-0.9-0.5-1.2-0.4-22 4.1-44.1 7.5-66.3 10.1-9.8 1.2-19.7 2.2-29.6 2.8-5.8 0.3-12.5 1.2-18.2-0.3-0.9-0.2-3.4 1.2-1.8 1.5 5.5 1.4 11.6 0.8 17.2 0.5 9.8-0.5 19.5-1.5 29.3-2.7 23.1-2.7 46.1-6.1 69-10.4l-1.2-0.4c6 25.9 14.4 51.3 22.8 76.4l0.9-1c-21.2 10.6-41.1 24.2-61.9 35.7-9.8 5.5-19.4 10.8-30.2 13.7-11.7 3-23.5 5.1-35.5 6.5-25 3.4-50.3 4.9-75.6 4.7-12.5-0.2-23.8-2.1-33.7-10.5-8.9-7.6-14.6-17.7-20.2-27.7-6.3-11.2-7.7-25.3-10-37.8-4.2-22.8-7.7-45.8-11-68.7-3.3-22.5-6.3-45-9-67.6-3.1-26.6-5.7-53.8-3.7-80.6 1-13.9 3.3-28.7 10.8-40.8 5.5-9 13.1-16.8 20.4-24.4 16.8-17.4 35.1-34.4 55.1-48.1 2.9-2.1 5.9-3.9 9.1-5.5 1.9-0.6 0.2-1.6-1.1-1z"/>
	<path class="st10" d="m223.4 382.5c22.1 9.1 44.8 22.9 56.8 44.2 0.4 0.6 3.1-0.5 2.9-0.8-12-21.4-34.8-35.3-56.9-44.4-0.8-0.2-2.9 1-2.8 1z"/>
	<path class="st10" d="m306.5 461.5c6 12.5 8 26.8 11 40.2 0.3 1.2 3.2 0.5 2.9-0.8-3.1-13.5-5-27.7-11-40.2-0.6-1.1-3.4-0.3-2.9 0.8z"/>
	<path class="st10" d="m604.6 309.8c16 10.6 30 25.8 42.7 40 12.1 13.6 26.1 29.4 29.8 47.9 3.3 16.3 3.8 33.4 4.5 50 0.9 22.5 1.2 45 0.9 67.4-0.2 19.5-0.7 39-2.2 58.5-1.5 18.8-4.7 37.5-7.2 56.1-1.7 12.3-3.5 24.7-6.1 36.9-2.3 10.6-4.9 21.5-10 31.2-4.2 8-10.4 12.7-18.2 16.9-10.2 5.2-20.8 9.5-31.8 12.6-24.2 7.3-51.5 12.8-76.8 8.6-14.9-2.7-29.7-6.1-44.3-10.4-13.9-3.9-27.7-8.8-40.1-16.3-5.8-3.5-11.3-7.6-16.4-12.2-0.9-0.9-3.5 0.5-2.2 1.7 21.9 20 51 27.9 79.3 34.4 12.8 3 25.3 6.1 38.5 6.3 13 0 26-1.3 38.8-4 21.9-4.4 46-11 64.6-23.8 15.8-10.9 19.5-34 22.8-51.5 4.6-23.9 7.1-48.2 10.6-72.3 2.5-17.2 2.8-34.8 3.3-52.1 0.6-23.3 0.6-46.7 0-70-0.5-19.5-1.1-39.1-3.5-58.5-0.8-6-1.6-12.1-3.7-17.8-3.6-9.6-9.8-18.3-16-26.3-13.9-18-29.8-34.3-47.3-48.8-2.5-2.1-5.1-4.1-7.8-5.9-1.1-1-3.6 0.5-2.2 1.4z"/>
	<path class="st10" d="m512.9 639.7c11.6-4.2 25-5.4 37.2-4.1 19.4 2 35.9 12 45.3 29.3 0.5 0.9 3.3 0 2.7-1.2-16.6-30.6-55.8-36.5-86.4-25.4-1.8 0.7-0.1 1.9 1.2 1.4z"/>
	<path class="st10" d="m571.8 473.4c-7.5 20.3-10.8 42.8-14 64-4.1 27.2-7.4 55.5-4.6 83 0.1 1 3 0.3 2.9-0.8-2.9-27.8 0.6-56.5 4.8-84 3.2-20.8 6.5-42.8 13.8-62.7 0.4-0.9-2.5-0.6-2.9 0.5z"/>
	<path class="st10" d="m615.8 412.5c4.7-7.6 8.2-16 13.3-23.3 6.7-9.5 16.2-15.4 27.1-19.2 1.9-0.7 0.1-1.2-1-0.8-10.7 3.7-20.4 9.3-27.4 18.4-6 7.8-9.8 17-14.9 25.4-0.2 0.4 2.5 0.3 2.9-0.5z"/>
	<path class="st10" d="m342.3 579.3c-5.8 8.8-17.4 13.3-26.6 17.3-10.3 4.4-20.9 8.3-30.9 13.2-5.2 2.6-10.9 6.8-17 6.4-4.6-0.3-8-3.5-10.9-6.8-3.2-3.6-5.9-7.6-8.8-11.5-4.1-5.5-6.9-10.7-5.9-17.8 1.7-12.3 10.9-23.1 18-32.8 7.7-10.6 14.3-21.9 25-29.8 10.5-7.8 24-12.1 36.9-8.2 7.8 2.3 13.5 7.9 18.9 13.6 7.8 8.3 14.9 17.1 21.3 26.5 4.5 6.6 9.8 13.8 12.1 21.6 0.2 0.7 3.1-0.1 2.9-0.8-2.6-8.3-8.3-16-13.2-23.1-6.4-9.2-13.5-17.9-21.2-26-6.8-7-13.6-12.6-23.6-14.1-10.5-1.6-21.2 1.2-30.3 6.4-12.3 6.9-19.6 17.5-27.6 28.7-8.1 11.4-19.6 23.6-22 37.9-2 11.8 7.5 22.1 14.7 30.5 5.8 6.7 12.4 8.4 20.8 5.4 6.5-2.3 12.5-6.2 18.9-9 7.4-3.2 14.9-6.1 22.4-9.3 10.1-4.3 22.7-9.2 28.9-18.7 0.3-0.5-2.3-0.3-2.8 0.4z"/>
	<path class="st10" d="m490.5 570.9c9.2-2.8 18.8-5.6 28.6-5 13 0.8 22.8 8.2 28.5 19.8 0.3 0.6 3.1-0.4 2.9-0.8-6-12.4-16.7-19.7-30.5-20.2-10.4-0.4-20.5 2.5-30.4 5.6-2 0.6-0.1 0.9 0.9 0.6z"/>
	<path class="st10" d="m381.6 279c10-7.1 24.6-7.3 34.2 0.6 0.6 0.5 3.1-0.7 2.7-1-11-9.1-28.4-7.3-39.6 0.6-0.4 0.4 2.2 0.1 2.7-0.2z"/>
	<path class="st10" d="m497.3 288c11-6.4 29-4 35.6 7.4 0.6 1 3.4 0 2.7-1.2-7.5-13-28.1-14.4-40.2-7.3-1.6 1 0.8 1.7 1.9 1.1z"/>
	<circle class="st10" cx="401" cy="311.2" r="2.2"/>
	<circle class="st10" cx="510.1" cy="313.8" r="2.6"/>
	<path class="st10" d="m434.1 301c0.6 8.8 1.4 17.6 2 26.5 0.2 3.8 0.6 7.6 0.6 11.4 0 3.7 0.1 6.6 3.9 8.3 3.5 1.5 8.1 1 11.8 1 4.9 0 9.8-0.3 14.7-0.3 8 0 12.1-4.3 11.7-12.5-0.6-10.5-0.6-21 0.1-31.5 0-0.3-2.8 0-2.9 0.8-0.7 10.1-0.7 20.2-0.2 30.3 0.1 2.5 0.6 5.1-0.4 7.5-1.5 3.9-4.7 4.3-8.3 4.4-5.5 0.1-11 0.3-16.5 0.3-5.8-0.1-11.3-0.9-11.2-7.7 0-3.5-0.2-7-0.4-10.5-0.6-9.6-1.5-19.1-2.1-28.7 0.1-0.5-2.9-0.1-2.8 0.7z"/>
	<path class="st10" d="m446.2 366.5c6.5-2.1 16.4-2.6 22.7 0 1.1 0.5 3.4-1.1 1.7-1.8-6.9-2.9-17.8-2.3-24.9 0-1.6 0.6-1.2 2.4 0.5 1.8z"/>
</svg>
